<svg xmlns="http://www.w3.org/2000/svg" xmlns:xlink="http://www.w3.org/1999/xlink" width="30" height="30" viewBox="0 0 30 30">
  <defs>
    <path id="a" d="M0,0 L30,0 L30,30 L0,30 L0,0 Z M13.2797946,14.7857104 C13.2797946,14.7857104 13.6430441,14.6471503 14.3695548,14.3700302 C15.0960627,14.0929072 15.4593122,13.2952571 15.4593122,11.977054 C15.4593122,10.6438753 15.0698502,9.64774808 14.2909118,8.98864655 C13.5119733,8.32954501 12.5532954,8 11.4148491,8 L4,8 L4,22.8746367 L11.4148491,22.8746367 C11.4148491,22.8746367 11.6507725,22.8596573 12.1226309,22.8296982 C12.5944863,22.7997391 13.1150192,22.6499457 13.6842437,22.3803134 C14.2534654,22.1106811 14.7739983,21.6800249 15.2458537,21.088332 C15.7177121,20.4966393 15.9536355,19.6315826 15.9536355,18.4931364 C15.9536355,18.4931364 15.9498909,18.2984039 15.9424016,17.9089333 C15.9349123,17.5194655 15.8525247,17.0962989 15.6952385,16.6394219 C15.5379524,16.182545 15.2758166,15.7593784 14.9088166,15.3699106 C14.5418166,14.9804428 13.998816,14.7857104 13.2797946,14.7857104 Z M7.280509,10.6513703 L11.4148491,10.6513703 C11.4148491,10.6513703 11.5833662,10.7150319 11.9204063,10.8423581 C12.2574463,10.9696843 12.4259663,11.4228108 12.4259663,12.2017493 C12.4259663,12.9657063 12.2986402,13.4525345 12.0439878,13.6622484 C11.7893355,13.8719623 11.4972368,13.9768178 11.1676889,13.9768178 L7.280509,13.9768178 L7.280509,10.6513703 Z M11.2126245,20.2232664 L7.280509,20.2232664 L7.280509,16.2686802 L11.4148491,16.2686802 C11.4148491,16.2686802 11.6657539,16.3510679 12.1675693,16.5158433 C12.6693848,16.6806158 12.9202867,17.2723024 12.9202867,18.2909118 C12.9202867,19.1747057 12.7105786,19.7177063 12.291148,19.9199309 C11.8717203,20.1221555 11.5122182,20.2232664 11.2126245,20.2232664 Z M21.9978596,11.7973001 C20.6347209,11.7973001 19.5786767,12.0931434 18.8296982,12.6848358 C18.0807197,13.2765281 17.5377191,13.9281318 17.200679,14.639661 C16.863639,15.3511903 16.6651619,16.0065357 16.605242,16.6057202 C16.545325,17.2049019 16.5153651,17.5044898 16.5153651,17.5044898 C16.5153651,17.5044898 16.5266018,17.8003303 16.5490697,18.3920226 C16.5715403,18.983715 16.7438021,19.6353187 17.0658636,20.3468474 C17.3879222,21.0583766 17.9234365,21.7099783 18.6724121,22.3016709 C19.4213906,22.8933639 20.5298625,23.189206 21.9978596,23.189206 C21.9978596,23.189206 22.252509,23.1817164 22.7618166,23.1667368 C23.2711213,23.1517572 23.8328451,23.0319225 24.4470081,22.807229 C25.0611712,22.5825354 25.6191503,22.1968174 26.1209658,21.6500633 C26.6227812,21.1033088 26.873686,20.2981706 26.873686,19.2346198 L24.3796018,19.2346198 C24.3796018,19.2346198 24.2934695,19.5005032 24.1212049,20.0322786 C23.9489402,20.5640525 23.2711241,20.8299359 22.0877365,20.8299359 C22.0877365,20.8299359 21.6683174,20.7438047 20.8294591,20.5715398 C19.9906036,20.3992745 19.5711817,19.6240934 19.5711817,18.2459733 L26.963563,18.2459733 C26.963563,18.2459733 26.9747969,17.908939 26.9972675,17.234859 C27.0197353,16.560776 26.903646,15.8192983 26.6489936,15.0104028 C26.3943413,14.2015073 25.9187469,13.4637742 25.2221962,12.7971834 C24.5256483,12.1305926 23.4508781,11.7973001 21.9978596,11.7973001 Z M24.2447835,16.2686802 L19.5487139,16.2686802 C19.5487139,16.2686802 19.6910186,15.8867074 19.9756309,15.1227475 C20.2602403,14.3587905 20.9567795,13.9768178 22.0652687,13.9768178 C23.1587765,13.9768178 23.7953987,14.3587905 23.9751527,15.1227475 C24.1549094,15.8867074 24.2447835,16.2686802 24.2447835,16.2686802 Z M24.8289866,8.87630179 L18.942043,8.87630179 L18.942043,10.7187766 L24.8289866,10.7187766 L24.8289866,8.87630179 Z"/>
  </defs>
  <use fill="#FFFFFF" fill-rule="evenodd" xlink:href="#a"/>
</svg>
