<svg xmlns="http://www.w3.org/2000/svg" xmlns:xlink="http://www.w3.org/1999/xlink" width="30" height="30" viewBox="0 0 30 30">
  <defs>
    <path id="a" d="M0,0 L30,0 L30,30 L0,30 L0,0 Z M15,3 C11.687484,3 8.859387,4.171863 6.515625,6.515625 C4.1718633,8.859387 3,11.687484 3,15 C3,18.312516 4.1718633,21.140613 6.515625,23.484375 C8.859387,25.8281367 11.687484,27 15,27 C18.312516,27 21.140613,25.8281367 23.484375,23.484375 C25.828137,21.140613 27,18.312516 27,15 C27,11.687484 25.828137,8.859387 23.484375,6.515625 C21.140613,4.171863 18.312516,3 15,3 Z M15,4.78125 C17.593764,4.78125 19.859364,5.640615 21.796875,7.359375 C21.640623,7.578126 21.421875,7.835937 21.140625,8.132814 C20.859375,8.429688 20.273442,8.890623 19.382814,9.515625 C18.492183,10.140627 17.500005,10.656249 16.40625,11.0625 C15.249993,8.906238 13.984383,6.906258 12.609375,5.0625 C13.390629,4.875 14.187495,4.78125 15,4.78125 Z M10.640625,5.71875 C12.015633,7.593759 13.281243,9.578115 14.4375,11.671875 C11.156235,12.546879 8.000016,12.968751 4.96875,12.9375 C5.3125017,11.343741 5.98437,9.91407 6.984375,8.648436 C7.98438,7.382805 9.203118,6.406254 10.640625,5.71875 Z M4.734375,15 C4.734375,14.90625 4.734375,14.8125 4.734375,14.71875 C8.234391,14.781249 11.749983,14.296881 15.28125,13.265625 C15.593751,13.828128 15.874998,14.406246 16.125,15 C15.968748,15.031251 15.828126,15.062499 15.703125,15.09375 C14.484369,15.500001 13.335942,16.062495 12.257814,16.78125 C11.179683,17.500005 10.289067,18.249996 9.585936,19.03125 C8.882808,19.812504 8.382813,20.406249 8.085936,20.8125 C7.789062,21.218751 7.562502,21.578124 7.40625,21.890625 C5.624991,19.921866 4.734375,17.625012 4.734375,15 Z M15,25.265625 C12.656238,25.265625 10.562508,24.5468823 8.71875,23.109375 C8.8125,22.921875 8.929686,22.710939 9.070314,22.476564 C9.210939,22.242186 9.50781,21.843753 9.960936,21.28125 C10.414065,20.718747 10.91406,20.195316 11.460936,19.710936 C12.007815,19.226559 12.757809,18.695316 13.710936,18.117186 C14.664066,17.539059 15.671871,17.062503 16.734375,16.6875 C16.765626,16.6875 16.796874,16.6875 16.828125,16.6875 C17.859381,19.375014 18.578124,21.968739 18.984375,24.46875 C17.734368,25.0000026 16.406256,25.265625 15,25.265625 Z M20.71875,23.53125 C20.343747,21.24999 19.687506,18.812514 18.75,16.21875 C20.93751,15.843747 23.062491,15.984372 25.125,16.640625 C24.656247,19.54689 23.187513,21.843741 20.71875,23.53125 Z M18.09375,14.578125 C18.031251,14.390625 17.968749,14.218752 17.90625,14.0625 C17.687499,13.562499 17.453127,13.062501 17.203125,12.5625 C18.328131,12.093747 19.367184,11.53125 20.320314,10.875 C21.273441,10.218747 21.898437,9.726564 22.195314,9.398436 C22.492188,9.070311 22.734375,8.781252 22.921875,8.53125 C24.453132,10.406259 25.234374,12.531237 25.265625,14.90625 C22.828113,14.406249 20.437512,14.296875 18.09375,14.578125 Z"/>
  </defs>
  <use fill="#FFFFFF" fill-rule="evenodd" xlink:href="#a"/>
</svg>
