<svg xmlns="http://www.w3.org/2000/svg" xmlns:xlink="http://www.w3.org/1999/xlink" width="30" height="30" viewBox="0 0 30 30">
  <defs>
    <path id="a" d="M0,0 L30,0 L30,30 L0,30 L0,0 Z M19.1528662,16.8726147 C18.6772802,16.8726147 18.2738862,17.1019092 17.9426743,17.5605112 C17.6114625,18.0191132 17.4458615,18.5711242 17.4458615,19.2165638 C17.4458615,19.8620001 17.6114625,20.4182571 17.9426743,20.8853511 C18.2738862,21.3524451 18.6772802,21.5859889 19.1528662,21.5859889 C19.6114682,21.5859889 20.006367,21.3524451 20.3375788,20.8853511 C20.6687906,20.4182571 20.8343949,19.8620001 20.8343949,19.2165638 C20.8343949,18.5711242 20.6687906,18.0191132 20.3375788,17.5605112 C20.006367,17.1019092 19.6114682,16.8726147 19.1528662,16.8726147 Z M25.0636943,10.757965 C25.148621,10.5201688 25.1571131,9.8237868 25.0891736,8.66878981 C25.0212309,7.51379608 24.7324857,6.29087918 24.2229283,5 C24.2229283,5 23.6794093,5.14437422 22.5923551,5.43312265 C21.5053008,5.72187108 20.0700735,6.47770375 18.2866242,7.7006402 C17.912949,7.59872611 17.4288775,7.52229462 16.8343965,7.47133921 C16.2399124,7.4203838 15.6284539,7.39490772 15,7.39490772 C14.3715461,7.39490772 13.7600876,7.4203838 13.1656067,7.47133921 C12.5711225,7.52229462 12.087051,7.59872611 11.7133758,7.7006402 C9.92992652,6.47770375 8.49469595,5.72187108 7.40764168,5.43312265 C6.32059068,5.14437422 5.77707006,5 5.77707006,5 C5.26751331,6.29087918 4.97876879,7.51379608 4.91082803,8.66878981 C4.84288726,9.8237868 4.85987196,10.5201688 4.96178344,10.757965 C4.35031554,11.4203887 3.87049001,12.159234 3.52229283,12.9745239 C3.17409591,13.7898138 3,14.7409728 3,15.8280271 C3,18.1719892 3.41613175,19.9851345 4.24840764,21.2675184 C5.08068354,22.5499019 6.04458061,23.4925676 7.14012657,24.0955429 C8.23567287,24.6985184 9.31846482,25.0552028 10.388535,25.1656067 C11.4586052,25.2760107 12.239914,25.3312118 12.7324841,25.3312118 C12.953293,25.3312118 13.2717603,25.3354581 13.6878989,25.3439507 C14.1040375,25.3524433 14.5413996,25.3566895 15,25.3566895 C15.4755877,25.3566895 15.9171958,25.3524433 16.3248424,25.3439507 C16.7324857,25.3354581 17.046707,25.3312118 17.2675159,25.3312118 C17.760086,25.3312118 18.5413948,25.2760107 19.611465,25.1656067 C20.6815352,25.0552028 21.7643271,24.6985184 22.8598734,24.0955429 C23.9554197,23.4925676 24.9193168,22.5499019 25.7515907,21.2675184 C26.5838679,19.9851345 27,18.1719892 27,15.8280271 C27,14.7409728 26.8259037,13.7898138 26.4777078,12.9745239 C26.1295087,12.159234 25.6581784,11.4203887 25.0636943,10.757965 Z M15.0254777,24.184715 L14.9745223,24.184715 C13.7346018,24.184715 12.5838704,24.1295139 11.5222922,24.0191101 C10.4607172,23.9087059 9.53503429,23.6666701 8.74522375,23.2929953 C7.95540994,22.9193204 7.33545946,22.3800477 6.8853495,21.6751617 C6.4352428,20.9702746 6.21019108,20.0233616 6.21019108,18.8343965 C6.21019108,18.2568997 6.31634792,17.7048887 6.52866161,17.1783472 C6.74097855,16.6518025 7.09341717,16.167731 7.58598726,15.7261163 C8.3842931,14.9957532 9.42886767,14.698516 10.7197469,14.8343982 C12.0106228,14.9702771 13.428866,15.0382198 14.9745223,15.0382198 C14.9745223,15.0382198 14.9787683,15.0382198 14.9872603,15.0382198 C14.9957524,15.0382198 15.0000016,15.0382198 15.0000016,15.0382198 C15.0000016,15.0382198 15.0042476,15.0382198 15.0127397,15.0382198 C15.0212317,15.0382198 15.0254777,15.0382198 15.0254777,15.0382198 C16.571134,15.0382198 17.9893772,14.9702771 19.2802564,14.8343982 C20.5711323,14.698516 21.6157069,14.9957532 22.4140127,15.7261163 C22.9065828,16.167731 23.2590215,16.6518025 23.4713384,17.1783472 C23.6836521,17.7048887 23.7898089,18.2568997 23.7898089,18.8343965 C23.7898089,20.0233616 23.5647572,20.9702746 23.1146505,21.6751617 C22.6645405,22.3800477 22.0445901,22.9193204 21.2547763,23.2929953 C20.4649657,23.6666701 19.5392828,23.9087059 18.4777078,24.0191101 C17.4161296,24.1295139 16.2653982,24.184715 15.0254777,24.184715 Z M10.8471338,16.8726147 C10.3885318,16.8726147 9.99363302,17.1019092 9.6624212,17.5605112 C9.33120938,18.0191132 9.1656051,18.5711242 9.1656051,19.2165638 C9.1656051,19.8620001 9.33120938,20.4182571 9.6624212,20.8853511 C9.99363302,21.3524451 10.3885318,21.5859889 10.8471338,21.5859889 C11.3227198,21.5859889 11.7261138,21.3524451 12.0573257,20.8853511 C12.3885375,20.4182571 12.5541418,19.8620001 12.5541418,19.2165638 C12.5541418,18.5711242 12.3885375,18.0191132 12.0573257,17.5605112 C11.7261138,17.1019092 11.3227198,16.8726147 10.8471338,16.8726147 Z"/>
  </defs>
  <use fill="#FFFFFF" fill-rule="evenodd" xlink:href="#a"/>
</svg>
