<svg xmlns="http://www.w3.org/2000/svg" xmlns:xlink="http://www.w3.org/1999/xlink" width="30" height="30" viewBox="0 0 30 30">
  <defs>
    <path id="a" d="M0,0 L30,0 L30,30 L0,30 L0,0 Z M10.5896739,8 C6.39401363,8 3,11.3934491 3,15.5905207 C3,19.7878745 6.39344909,23.1813236 10.5896739,23.1813236 C14.97135,23.1813236 17.8761898,20.1026055 17.8761898,15.7643989 C17.8761898,15.2647812 17.8761898,14.8848458 17.7567896,14.5046283 L10.5896739,14.5046283 L10.5896739,17.1108265 L14.8954194,17.1108265 C14.7215411,18.2240991 13.5921791,20.3851577 10.5896739,20.3851577 C7.99956499,20.3851577 5.88423414,18.2348254 5.88423414,15.5905207 C5.88423414,12.946216 7.99956499,10.7961659 10.5896739,10.7961659 C12.0665101,10.7961659 13.0547372,11.4259101 13.6139139,11.9689975 L15.6773071,9.9871803 C14.352332,8.74914439 12.6420585,8 10.5896739,8 L10.5896739,8 Z M22.5186834,12.3382065 L22.5186834,14.5046283 L20.3468985,14.5046283 L20.3468985,16.6764131 L22.5186834,16.6764131 L22.5186834,18.8431171 L24.6851051,18.8431171 L24.6851051,16.6764131 L26.8568899,16.6764131 L26.8568899,14.5046283 L24.6851051,14.5046283 L24.6851051,12.3382065 L22.5186834,12.3382065 Z"/>
  </defs>
  <use fill="#FFFFFF" fill-rule="evenodd" xlink:href="#a"/>
</svg>
