<svg xmlns="http://www.w3.org/2000/svg" xmlns:xlink="http://www.w3.org/1999/xlink" width="30" height="30" viewBox="0 0 30 30">
  <defs>
    <path id="a" d="M0,0 L30,0 L30,30 L0,30 L0,0 Z M24.6884409,19.7439328 C24.6353386,20.8937584 24.4405039,21.5183436 24.2766614,21.9338017 C24.0599055,22.4840182 23.8008189,22.8771098 23.3824252,23.2895857 C22.9640315,23.7022481 22.5656693,23.9577856 22.007622,24.1717587 C21.5862047,24.3331704 20.9531339,24.5253361 19.7875276,24.5778974 C18.5268661,24.6345593 18.1489134,24.6464881 14.9561575,24.6464881 C11.7634016,24.6464881 11.3854488,24.6345593 10.1249764,24.5778974 C8.9591811,24.5253361 8.32611024,24.3331704 7.90488189,24.1717587 C7.34664567,23.9577856 6.94828346,23.7022481 6.53007874,23.2895857 C6.11168504,22.8771098 5.85259843,22.4840182 5.63565354,21.9338017 C5.47181102,21.5183436 5.27716535,20.8937584 5.22387402,19.7439328 C5.1664252,18.5005405 5.15414173,18.1275788 5.15414173,14.9789316 C5.15414173,11.830098 5.1664252,11.4571362 5.22387402,10.213744 C5.27716535,9.06391835 5.47181102,8.43970599 5.63565354,8.02406145 C5.85259843,7.47347222 6.11168504,7.08093975 6.53007874,6.66809103 C6.94828346,6.25542869 7.34664567,5.99989117 7.90488189,5.78591811 C8.32611024,5.62450637 8.9591811,5.43234067 10.1249764,5.37996573 C11.3856378,5.32330387 11.7637795,5.31100228 14.9561575,5.31100228 C18.1487244,5.31100228 18.5266772,5.32330387 19.7875276,5.37996573 C20.9531339,5.43234067 21.5862047,5.62450637 22.007622,5.78591811 C22.5656693,5.99989117 22.9640315,6.25542869 23.3824252,6.66809103 C23.8008189,7.08093975 24.0599055,7.47347222 24.2766614,8.02406145 C24.4405039,8.43970599 24.6353386,9.06391835 24.6884409,10.213744 C24.7458898,11.4571362 24.7581732,11.830098 24.7581732,14.9789316 C24.7581732,18.1275788 24.7458898,18.5005405 24.6884409,19.7439328 M26.8405039,10.1170088 C26.7824882,8.86168771 26.5802835,8.00467713 26.2847244,7.2542803 C25.9791496,6.47890753 25.5703937,5.82133177 24.9055748,5.16561989 C24.2409449,4.51028078 23.5742362,4.10675144 22.7879055,3.80554894 C22.0274646,3.5140386 21.1583622,3.31460378 19.8856063,3.25738276 C18.6103937,3.19997535 18.2033386,3.18636905 14.9561575,3.18636905 C11.7089764,3.18636905 11.3019213,3.19997535 10.0267087,3.25738276 C8.75395276,3.31460378 7.88503937,3.5140386 7.12440945,3.80554894 C6.33807874,4.10675144 5.67137008,4.51028078 5.00674016,5.16561989 C4.34192126,5.82133177 3.93316535,6.47890753 3.62777953,7.2542803 C3.3320315,8.00467713 3.13001575,8.86168771 3.072,10.1170088 C3.01379528,11.3747529 3,11.776232 3,14.9789316 C3,18.1816312 3.01379528,18.5829239 3.072,19.8408544 C3.13001575,21.0959891 3.3320315,21.9533724 3.62777953,22.7033965 C3.93316535,23.4787692 4.34192126,24.1365314 5.00674016,24.7920569 C5.67137008,25.4477688 6.33807874,25.8509253 7.12440945,26.1523142 C7.88503937,26.4436382 8.75395276,26.643073 10.0267087,26.700294 C11.3019213,26.7577014 11.7089764,26.7713077 14.9561575,26.7713077 C18.2033386,26.7713077 18.6103937,26.7577014 19.8856063,26.700294 C21.1583622,26.643073 22.0274646,26.4436382 22.7879055,26.1523142 C23.5742362,25.8509253 24.2409449,25.4477688 24.9055748,24.7920569 C25.5703937,24.1365314 25.9791496,23.4787692 26.2847244,22.7033965 C26.5802835,21.9533724 26.7824882,21.0959891 26.8405039,19.8408544 C26.8987087,18.5829239 26.912315,18.1816312 26.912315,14.9789316 C26.912315,11.776232 26.8987087,11.3747529 26.8405039,10.1170088 M14.9561575,18.9097361 C12.7551496,18.9097361 10.9708346,17.1498635 10.9708346,14.9788197 C10.9708346,12.8079624 12.7551496,11.0479034 14.9561575,11.0479034 C17.1571654,11.0479034 18.9416693,12.8079624 18.9416693,14.9788197 C18.9416693,17.1498635 17.1571654,18.9097361 14.9561575,18.9097361 M14.9561575,8.9232702 C11.5653543,8.9232702 8.81650394,11.6344655 8.81650394,14.9788197 C8.81650394,18.3233604 11.5653543,21.0343693 14.9561575,21.0343693 C18.3469606,21.0343693 21.095811,18.3233604 21.095811,14.9788197 C21.095811,11.6344655 18.3469606,8.9232702 14.9561575,8.9232702 M21.3384378,10.0990969 C20.5460598,10.0990969 19.9037291,9.46556518 19.9037291,8.68404161 C19.9037291,7.90251804 20.5460598,7.2687999 21.3384378,7.2687999 C22.1308157,7.2687999 22.7731465,7.90251804 22.7731465,8.68404161 C22.7731465,9.46556518 22.1308157,10.0990969 21.3384378,10.0990969"/>
  </defs>
  <use fill="#FFFFFF" fill-rule="evenodd" xlink:href="#a"/>
</svg>
