<svg xmlns="http://www.w3.org/2000/svg" xmlns:xlink="http://www.w3.org/1999/xlink" width="30" height="30" viewBox="0 0 30 30">
  <defs>
    <path id="a" d="M30,0 L30,30 L0,30 L0,0 L30,0 Z M10.4114943,11.5268889 L6.02402299,11.5268889 L6.02402299,23.7757667 L10.4114943,23.7757667 L10.4114943,11.5268889 Z M20.6410287,11.2530342 C18.653454,11.2530342 17.4898678,12.4479099 17.053523,13.0954801 L17.053523,13.0954801 L16.9807989,13.0954801 L16.7868678,11.5269113 L13.0056494,11.5269113 C13.0539138,12.6722155 13.1023966,14.0662745 13.1023966,15.709537 L13.1023966,15.709537 L13.1023966,23.7757891 L17.4898678,23.7757891 L17.4898678,16.829719 C17.4898678,16.506046 17.5141092,16.1574752 17.6110747,15.933394 C17.8050057,15.4605578 18.1928678,14.8630078 19.0410977,14.8630078 C20.1077184,14.8630078 20.5683046,15.6846391 20.5683046,17.103596 L20.5683046,17.103596 L20.5683046,23.7757891 L24.9555575,23.7757891 L24.9555575,16.5558419 C24.9555575,13.1948474 23.428569,11.2530342 20.6410287,11.2530342 Z M8.22998851,6 C6.87247126,6 6,6.89610069 6,8.14099653 C6,9.31119861 6.84844828,10.2568708 8.20574713,10.2568708 L8.20574713,10.2568708 L8.22998851,10.2568708 C9.58728736,10.2568708 10.459977,9.31119861 10.459977,8.14099653 C10.4357356,6.89610069 9.58728736,6 8.22998851,6 Z"/>
  </defs>
  <use fill="#FFFFFF" fill-rule="evenodd" xlink:href="#a"/>
</svg>
