<svg xmlns="http://www.w3.org/2000/svg" xmlns:xlink="http://www.w3.org/1999/xlink" width="30" height="30" viewBox="0 0 30 30">
  <defs>
    <path id="a" d="M30,0 L30,30 L0,30 L0,0 L30,0 Z M15.9976812,3.99997767 C9.35124375,3.99997767 5.99988125,8.48028835 5.99988125,12.2165602 C5.99988125,14.4788223 6.91093125,16.4912107 8.86460625,17.2415019 C9.18499375,17.3645408 9.47213125,17.2457447 9.56499375,16.912133 C9.62959375,16.6812398 9.78254375,16.0988709 9.85070625,15.8565893 C9.94451875,15.5267738 9.90818125,15.4111039 9.64954375,15.1234922 C9.08619375,14.4986961 8.72614375,13.6899 8.72614375,12.5441427 C8.72614375,9.22030777 11.3711812,6.24459903 15.6136437,6.24459903 C19.3704187,6.24459903 21.4345312,8.40280291 21.4345312,11.2851718 C21.4345312,15.0777155 19.6494812,18.2782883 16.9992187,18.2782883 C15.5357437,18.2782883 14.4403937,17.1403466 14.7914187,15.7449388 C15.2120312,14.0784437 16.0264187,12.280201 16.0264187,11.0775019 C16.0264187,10.000968 15.4117687,9.10285146 14.1397187,9.10285146 C12.6437062,9.10285146 11.4419562,10.5581039 11.4419562,12.5075214 C11.4419562,13.7488515 11.8879812,14.5886864 11.8879812,14.5886864 C11.8879812,14.5886864 10.3570562,20.6877058 10.0886812,21.7557544 C9.55406875,23.8829194 10.0084062,26.4906282 10.0468812,26.7541233 C10.0692062,26.9102107 10.2827187,26.9472786 10.3791437,26.8293757 C10.5171312,26.6598903 12.2990937,24.5916767 12.9047187,22.5252495 C13.0761937,21.9399777 13.8889187,18.9097835 13.8889187,18.9097835 C14.3748437,19.7815505 15.7953312,20.5492592 17.3060687,20.5492592 C21.8031312,20.5492592 24.8540562,16.6946379 24.8540562,11.5350456 C24.8540562,7.63330777 21.3395312,3.99997767 15.9976812,3.99997767 Z"/>
  </defs>
  <use fill="#FFFFFF" fill-rule="evenodd" xlink:href="#a"/>
</svg>
