<svg xmlns="http://www.w3.org/2000/svg" xmlns:xlink="http://www.w3.org/1999/xlink" width="30" height="30" viewBox="0 0 30 30">
  <defs>
    <path id="a" d="M0,0 L30,0 L30,30 L0,30 L0,0 Z M21.530343,12.9979388 C21.5690426,12.9979388 21.6754599,12.9592392 21.8496061,12.8818438 C22.0237486,12.8044484 22.1495175,12.7657488 22.2269129,12.7657488 C22.768692,12.7657488 23.1556728,12.8237963 23.3878628,12.9398913 C23.6974519,13.0946859 23.8619167,13.2978502 23.8812646,13.5493919 C23.9006163,13.8009298 23.7748473,14.0234421 23.5039578,14.2169362 C23.2717678,14.3717307 22.8073916,14.5845691 22.1108179,14.8554586 C21.5690389,15.0489527 21.2497795,15.2617911 21.1530362,15.493981 C21.0562891,15.726171 21.1433585,16.0938039 21.414248,16.5968834 C22.3817112,18.4544143 23.7361403,19.5960014 25.4775726,20.0216855 C25.8258575,20.1377805 26,20.2538755 26,20.3699705 C26,20.7182554 25.883905,20.9697933 25.651715,21.1245879 C25.0325405,21.3954774 24.355326,21.6276652 23.6200528,21.8211578 C23.2330682,21.9372535 23.0008783,22.1500922 22.9234828,22.4596802 C22.8460874,22.885364 22.7396664,23.1465751 22.6042198,23.2433214 C22.4687769,23.3400677 22.1882171,23.3497421 21.762533,23.2723451 C20.4467848,23.0014556 19.2277986,23.2723411 18.1055409,24.0850101 C16.9832832,24.8976791 15.9384394,25.2943329 14.9709763,25.2749837 C14.0035131,25.2556344 12.9586693,24.8396316 11.8364116,24.0269626 C10.7528534,23.252992 9.5725668,23.0014556 8.29551451,23.2723451 C7.86983042,23.3497421 7.58927063,23.3400677 7.45382586,23.2433214 C7.31838109,23.1465751 7.19261288,22.885364 7.07651715,22.4596802 C6.99912024,22.072695 6.78628154,21.8598563 6.43799472,21.8211578 C5.70272263,21.7050621 5.04485785,21.4922245 4.46437995,21.1826354 C4.23218882,21.0665404 4.07739705,20.8150025 4,20.428018 C4,20.2345239 4.21283867,20.079733 4.63852243,19.963638 C6.45735305,19.4605585 7.85047878,18.1835248 8.81794195,16.1325035 C8.97273651,15.7455189 8.85664152,15.4165856 8.46965699,15.1456961 C8.35356201,15.1069965 8.17941953,15.048949 7.94722955,14.9715536 C7.71503846,14.8941582 7.54089784,14.816759 7.42480211,14.7393636 C7.11521375,14.5845691 6.90237541,14.4684741 6.78627968,14.3910787 C6.24450023,14.0814896 6.07035961,13.7138604 6.26385224,13.2881763 C6.49604333,12.7076976 6.94106978,12.5335589 7.59894459,12.7657488 C7.98592912,12.9205434 8.27616287,13.0172867 8.46965699,13.0559863 C8.85664152,13.0946859 9.05013193,12.9205434 9.05013193,12.5335589 C9.01143236,11.4887003 9.01143236,10.4438528 9.05013193,9.39899423 C9.20492648,7.19317833 10.3658652,5.68395836 12.5329815,4.87128974 C13.9648284,4.29081109 15.4450227,4.2327636 16.9736166,4.69714726 C18.5022068,5.16153092 19.6534716,6.07093175 20.4274406,7.42537945 C20.7757256,8.08325352 20.9885676,9.12809725 21.0659631,10.5599441 C21.0659631,10.7921341 21.0466151,11.1307413 21.0079156,11.5757771 C20.969216,12.0208091 20.9498681,12.3594164 20.9498681,12.5916064 C20.9111685,12.8237963 20.9498681,12.9689132 21.0659631,13.0269607 C21.182058,13.0850119 21.3368489,13.0753342 21.530343,12.9979388 Z"/>
  </defs>
  <use fill="#FFFFFF" fill-rule="evenodd" xlink:href="#a"/>
</svg>
