<svg xmlns="http://www.w3.org/2000/svg" xmlns:xlink="http://www.w3.org/1999/xlink" width="30" height="30" viewBox="0 0 30 30">
  <defs>
    <path id="a" d="M0,0 L30,0 L30,30 L0,30 L0,0 Z M23.2888157,20.865576 C21.9869689,21.3142278 20.5749076,21.2617359 19.3132297,20.7183851 C18.0524096,20.1755685 17.0943579,19.2076079 16.615332,17.9924147 L16.6147602,17.9917468 C16.1334471,16.7748172 16.1877681,15.455976 16.7687175,14.2781815 C17.3495238,13.1005206 18.3859123,12.2042856 19.6884738,11.7552331 C22.376651,10.8285447 25.3707414,12.1171998 26.3631012,14.6282608 C27.3561757,17.1379861 25.976707,19.9363499 23.2888157,20.865576 M8.51477707,21.1411248 C5.6494847,21.1411248 3.31839697,18.9642487 3.31839697,16.2878317 C3.31839697,13.6107469 5.6494847,11.4326686 8.51477707,11.4326686 C11.3796406,11.4326686 13.7105854,13.6107469 13.7105854,16.2878317 C13.7105854,18.9642487 11.3796406,21.1411248 8.51477707,21.1411248 M21.2772215,10.2310992 C20.5959212,10.2511343 19.9070446,10.3704097 19.2331777,10.6026828 C17.601402,11.1659352 16.3018423,12.2885664 15.5749409,13.7646161 C15.2557333,14.4124164 15.0654667,15.0937421 15.0008532,15.7833489 C14.7281044,12.6948774 11.9770292,10.254607 8.61441331,10.2070571 C10.4830574,9.45721159 12.6421761,9.06051739 14.9726921,9.06051739 C17.3070676,9.06051739 19.415582,9.45333815 21.2772215,10.2310992 M27.5960461,14.2028497 C27.3757599,13.64494 27.0751358,13.1363166 26.7131861,12.6816543 C27.0213865,11.4664611 27.9937333,10.253672 27.9937333,10.253672 L23.6672047,10.2510007 C21.2284756,8.77548525 18.2585437,8.0001284 14.9726921,8.0001284 C11.5699072,8.0001284 8.49390635,8.79805809 6.07061578,10.2793169 L1.99996794,10.2818547 C1.99996794,10.2818547 2.95844854,11.4771464 3.27408243,12.6835242 C2.47670661,13.6930242 2.00411349,14.9396057 2.00411349,16.2878317 C2.00411349,19.6415673 4.9245846,22.3695412 8.51477707,22.3695412 C10.5658255,22.3695412 12.3971596,21.4781146 13.591365,20.0892841 L14.9749793,22.0258731 L16.3720309,20.0733897 C17.0000108,20.8202967 17.8119675,21.4238863 18.7627288,21.833403 C20.3427566,22.5145951 22.1120503,22.5801765 23.7442549,22.017592 C27.1127317,20.8534214 28.8404269,17.3475528 27.5960461,14.2028497 M8.43072239,15.223409 C7.83204726,15.223409 7.34830402,15.6748657 7.34830402,16.2335767 C7.34830402,16.7909521 7.83204726,17.2450802 8.43072239,17.2450802 C9.02739623,17.2450802 9.51199716,16.7909521 9.51199716,16.2335767 C9.51199716,15.6748657 9.02739623,15.223409 8.43072239,15.223409 M21.4752647,15.223409 C20.8763036,15.223409 20.3941328,15.6748657 20.3941328,16.2335767 C20.3941328,16.7909521 20.8763036,17.2450802 21.4752647,17.2450802 C22.0722244,17.2450802 22.5553958,16.7909521 22.5553958,16.2335767 C22.5553958,15.6748657 22.0722244,15.223409 21.4752647,15.223409 M8.43399595,18.2034907 C7.27023896,18.2034907 6.32305141,17.3200781 6.32305141,16.2336435 C6.32305141,15.1480104 7.27023896,14.2649984 8.43399595,14.2649984 C9.59360739,14.2649984 10.53765,15.1480104 10.53765,16.2336435 C10.53765,17.3200781 9.59360739,18.2034907 8.43399595,18.2034907 M8.43399595,13.2305215 C6.65941306,13.2305215 5.21590267,14.5774118 5.21590267,16.2336435 C5.21590267,17.8897417 6.65941306,19.2374334 8.43399595,19.2374334 C10.2044333,19.2374334 11.6449417,17.8897417 11.6449417,16.2336435 C11.6449417,14.5774118 10.2044333,13.2305215 8.43399595,13.2305215 M21.4752647,18.2034907 C20.3123654,18.2034907 19.3666073,17.3200781 19.3666073,16.2336435 C19.3666073,15.1480104 20.3123654,14.2649984 21.4752647,14.2649984 C22.6367344,14.2649984 23.5813489,15.1480104 23.5813489,16.2336435 C23.5813489,17.3200781 22.6367344,18.2034907 21.4752647,18.2034907 M21.4752647,13.2305215 C19.7025401,13.2305215 18.2593156,14.5774118 18.2593156,16.2336435 C18.2593156,17.8897417 19.7025401,19.2374334 21.4752647,19.2374334 C23.2467026,19.2374334 24.6886406,17.8897417 24.6886406,16.2336435 C24.6886406,14.5774118 23.2467026,13.2305215 21.4752647,13.2305215"/>
  </defs>
  <use fill="#FFFFFF" fill-rule="evenodd" xlink:href="#a"/>
</svg>
