<svg xmlns="http://www.w3.org/2000/svg" xmlns:xlink="http://www.w3.org/1999/xlink" width="30" height="30" viewBox="0 0 30 30">
  <defs>
    <path id="a" d="M30,0 L30,30 L0,30 L0,0 L30,0 Z M20.0383335,6 C17.2501086,6 14.9895777,8.26053085 14.9895777,11.049019 C14.9895777,11.4443289 15.0340567,11.8299009 15.1201195,12.1994184 C10.9240963,11.9891303 7.20339251,9.97889224 4.71336079,6.92431999 C4.27857246,7.6699346 4.02959561,8.53714256 4.02959561,9.46225211 C4.02959561,11.2140385 4.92101696,12.7592215 6.27565106,13.6651182 C5.44792146,13.6387993 4.66940822,13.4116672 3.98906449,13.0334645 C3.98853812,13.0545196 3.98853812,13.0758379 3.98853812,13.0968931 C3.98853812,15.5432354 5.72874419,17.5840034 8.03875459,18.0477425 C7.61475701,18.1632825 7.16865155,18.2248687 6.70833388,18.2248687 C6.38329539,18.2248687 6.06641576,18.193286 5.75848456,18.1343317 C6.40066587,20.1403587 8.26562356,21.6000053 10.4748325,21.6405364 C8.74699635,22.9949073 6.56989644,23.8021081 4.20408996,23.8021081 C3.79667329,23.8021081 3.39504678,23.7781579 3,23.7315735 C5.23421195,25.1638484 7.88821045,26 10.7396007,26 C20.0262268,26 25.1049861,18.3064573 25.1049861,11.6343514 C25.1049861,11.4153781 25.1002487,11.1977208 25.0905107,10.9811162 C26.0772065,10.269453 26.9330973,9.38013712 27.6097564,8.36738561 C26.7041229,8.76901212 25.7311129,9.04062323 24.7099393,9.16247977 C25.752168,8.53793212 26.5527891,7.54834125 26.9299391,6.36899106 C25.9545604,6.94774381 24.8739061,7.36805674 23.7237699,7.59439934 C22.8026082,6.61323051 21.4906107,6 20.0383335,6 Z"/>
  </defs>
  <use fill="#FFFFFF" fill-rule="evenodd" xlink:href="#a"/>
</svg>
