<svg xmlns="http://www.w3.org/2000/svg" xmlns:xlink="http://www.w3.org/1999/xlink" width="30" height="30" viewBox="0 0 30 30">
  <defs>
    <path id="a" d="M30,0 L30,30 L0,30 L0,0 L30,0 Z M22.5815324,6.0038607 C19.5662117,5.9076371 17.5235041,7.61010306 16.4546674,11.112202 C17.0062236,10.8741586 17.5436293,10.7552942 18.0649977,10.7552942 C19.1709402,10.7552942 19.6592908,11.377603 19.5294203,12.6200195 C19.463699,13.3706265 18.9756629,14.466192 18.0649977,15.9054581 C17.1537036,17.3431519 16.468818,18.0635711 16.0131709,18.0635711 C15.4276534,18.0635711 14.8902478,16.9554274 14.4025262,14.7372533 C14.23838,14.0866433 13.9462502,12.4234844 13.523621,9.74934872 C13.1324375,7.27237709 12.0903296,6.11392038 10.3976118,6.27649424 C9.68033713,6.34253005 8.60615469,6.99408333 7.17380661,8.23052518 C6.13201316,9.17578058 5.07261016,10.1200926 4,11.0625179 L4,11.0625179 L5.02261162,12.3816617 C5.99774035,11.6992917 6.56816393,11.35622 6.73042334,11.35622 C7.47757132,11.35622 8.17566412,12.5285128 8.82564513,14.8699538 C9.41053369,17.0173753 9.99636563,19.1629101 10.5815686,21.3097027 C11.458587,23.6524015 12.5311972,24.823122 13.7981413,24.823122 C15.8461947,24.823122 18.3486372,22.9005367 21.3051546,19.0547371 C24.1651339,15.3733982 25.6455938,12.4725396 25.7418174,10.3549914 C25.87043,7.51985413 24.8173161,6.06958205 22.5815324,6.0038607 Z"/>
  </defs>
  <use fill="#FFFFFF" fill-rule="evenodd" xlink:href="#a"/>
</svg>
