<svg xmlns="http://www.w3.org/2000/svg" xmlns:xlink="http://www.w3.org/1999/xlink" width="30" height="30" viewBox="0 0 30 30">
  <defs>
    <path id="a" d="M0,0 L30,0 L30,30 L0,30 L0,0 Z M23.0508801,7.30137122 C17.0808558,6.89954293 11.7136566,6.89954293 6.94911993,7.30137122 C6.20286703,7.38747689 5.5714317,7.8036497 5.0547952,8.54990343 C4.53815871,9.29615716 4.23679178,10.0710999 4.15068567,10.8747565 C3.94977144,13.5153432 3.94977144,16.1558914 4.15068567,18.7964781 C4.23679178,19.6001347 4.53815871,20.3750783 5.0547952,21.1213312 C5.5714317,21.8675841 6.20286703,22.2981081 6.94911993,22.4129162 C12.7469302,22.7860425 18.1141294,22.7860425 23.0508801,22.4129162 C23.7971339,22.2694061 24.4285681,21.8245312 24.9452049,21.0782783 C25.4618416,20.3320254 25.7632087,19.5714319 25.8493144,18.7964781 C26.0502285,16.0984858 26.0502285,13.3861847 25.8493144,10.6594923 C25.7632087,9.82713293 25.4833667,9.0665402 25.0097827,8.37769209 C24.5362016,7.68884398 23.8832395,7.33007403 23.0508801,7.30137122 Z M12.2446186,18.7534253 L12.2446186,10.8317037 L19.1330722,14.7925645 L12.2446186,18.7534253 Z"/>
  </defs>
  <use fill="#FFFFFF" fill-rule="evenodd" xlink:href="#a"/>
</svg>
